<mxfile host="app.diagrams.net" modified="2022-03-07T20:19:32.466Z" agent="5.0 (Windows NT 10.0; Win64; x64) AppleWebKit/537.36 (KHTML, like Gecko) Chrome/98.0.4758.121 Safari/537.36" etag="6LvxlsQuym0v7oau7aNw" version="16.6.5" type="github">
  <diagram id="R2lEEEUBdFMjLlhIrx00" name="Page-1">
    <mxGraphModel dx="1178" dy="674" grid="1" gridSize="10" guides="1" tooltips="1" connect="1" arrows="1" fold="1" page="1" pageScale="1" pageWidth="850" pageHeight="1100" math="0" shadow="0" extFonts="Permanent Marker^https://fonts.googleapis.com/css?family=Permanent+Marker">
      <root>
        <mxCell id="0" />
        <mxCell id="1" parent="0" />
        <mxCell id="N7ND0vrJDMsWQSG43f-Y-2" value="Patient" style="whiteSpace=wrap;html=1;align=center;" parent="1" vertex="1">
          <mxGeometry x="380" y="280" width="100" height="40" as="geometry" />
        </mxCell>
        <mxCell id="N7ND0vrJDMsWQSG43f-Y-3" value="ID" style="ellipse;whiteSpace=wrap;html=1;align=center;fontStyle=4" parent="1" vertex="1">
          <mxGeometry x="380" y="200" width="100" height="40" as="geometry" />
        </mxCell>
        <mxCell id="N7ND0vrJDMsWQSG43f-Y-5" value="" style="endArrow=none;html=1;rounded=0;exitX=0.5;exitY=0;exitDx=0;exitDy=0;entryX=0.5;entryY=1;entryDx=0;entryDy=0;" parent="1" source="N7ND0vrJDMsWQSG43f-Y-2" target="N7ND0vrJDMsWQSG43f-Y-3" edge="1">
          <mxGeometry relative="1" as="geometry">
            <mxPoint x="410" y="550" as="sourcePoint" />
            <mxPoint x="570" y="550" as="targetPoint" />
          </mxGeometry>
        </mxCell>
        <mxCell id="N7ND0vrJDMsWQSG43f-Y-6" value="Name" style="ellipse;whiteSpace=wrap;html=1;align=center;" parent="1" vertex="1">
          <mxGeometry x="510" y="200" width="100" height="40" as="geometry" />
        </mxCell>
        <mxCell id="N7ND0vrJDMsWQSG43f-Y-7" value="Age" style="ellipse;whiteSpace=wrap;html=1;align=center;" parent="1" vertex="1">
          <mxGeometry x="250" y="200" width="100" height="40" as="geometry" />
        </mxCell>
        <mxCell id="N7ND0vrJDMsWQSG43f-Y-8" value="First Name" style="ellipse;whiteSpace=wrap;html=1;align=center;" parent="1" vertex="1">
          <mxGeometry x="445" y="90" width="100" height="40" as="geometry" />
        </mxCell>
        <mxCell id="N7ND0vrJDMsWQSG43f-Y-9" value="Last Name" style="ellipse;whiteSpace=wrap;html=1;align=center;" parent="1" vertex="1">
          <mxGeometry x="580" y="90" width="100" height="40" as="geometry" />
        </mxCell>
        <mxCell id="N7ND0vrJDMsWQSG43f-Y-10" value="" style="endArrow=none;html=1;rounded=0;entryX=0.5;entryY=1;entryDx=0;entryDy=0;exitX=0.5;exitY=0;exitDx=0;exitDy=0;" parent="1" source="N7ND0vrJDMsWQSG43f-Y-6" target="N7ND0vrJDMsWQSG43f-Y-8" edge="1">
          <mxGeometry width="50" height="50" relative="1" as="geometry">
            <mxPoint x="470" y="570" as="sourcePoint" />
            <mxPoint x="520" y="520" as="targetPoint" />
          </mxGeometry>
        </mxCell>
        <mxCell id="N7ND0vrJDMsWQSG43f-Y-11" value="" style="endArrow=none;html=1;rounded=0;entryX=0.5;entryY=1;entryDx=0;entryDy=0;exitX=0.5;exitY=0;exitDx=0;exitDy=0;" parent="1" source="N7ND0vrJDMsWQSG43f-Y-6" target="N7ND0vrJDMsWQSG43f-Y-9" edge="1">
          <mxGeometry width="50" height="50" relative="1" as="geometry">
            <mxPoint x="470" y="570" as="sourcePoint" />
            <mxPoint x="520" y="520" as="targetPoint" />
          </mxGeometry>
        </mxCell>
        <mxCell id="N7ND0vrJDMsWQSG43f-Y-12" value="" style="endArrow=none;html=1;rounded=0;exitX=0.25;exitY=0;exitDx=0;exitDy=0;entryX=0.5;entryY=1;entryDx=0;entryDy=0;" parent="1" source="N7ND0vrJDMsWQSG43f-Y-2" target="N7ND0vrJDMsWQSG43f-Y-7" edge="1">
          <mxGeometry width="50" height="50" relative="1" as="geometry">
            <mxPoint x="430" y="280" as="sourcePoint" />
            <mxPoint x="350" y="240" as="targetPoint" />
          </mxGeometry>
        </mxCell>
        <mxCell id="N7ND0vrJDMsWQSG43f-Y-13" value="" style="endArrow=none;html=1;rounded=0;entryX=0.5;entryY=1;entryDx=0;entryDy=0;exitX=0.75;exitY=0;exitDx=0;exitDy=0;" parent="1" source="N7ND0vrJDMsWQSG43f-Y-2" target="N7ND0vrJDMsWQSG43f-Y-6" edge="1">
          <mxGeometry width="50" height="50" relative="1" as="geometry">
            <mxPoint x="470" y="570" as="sourcePoint" />
            <mxPoint x="520" y="520" as="targetPoint" />
          </mxGeometry>
        </mxCell>
        <mxCell id="N7ND0vrJDMsWQSG43f-Y-14" value="ISA" style="triangle;whiteSpace=wrap;rotation=-90;horizontal=1;direction=east;flipV=0;flipH=0;verticalAlign=middle;html=1;labelPosition=center;verticalLabelPosition=middle;align=center;" parent="1" vertex="1">
          <mxGeometry x="400" y="380" width="60" height="80" as="geometry" />
        </mxCell>
        <mxCell id="N7ND0vrJDMsWQSG43f-Y-16" value="" style="endArrow=none;html=1;rounded=0;entryX=0.5;entryY=1;entryDx=0;entryDy=0;" parent="1" source="N7ND0vrJDMsWQSG43f-Y-14" target="N7ND0vrJDMsWQSG43f-Y-2" edge="1">
          <mxGeometry relative="1" as="geometry">
            <mxPoint x="410" y="410" as="sourcePoint" />
            <mxPoint x="570" y="410" as="targetPoint" />
          </mxGeometry>
        </mxCell>
        <mxCell id="N7ND0vrJDMsWQSG43f-Y-17" value="" style="endArrow=none;html=1;rounded=0;entryX=0;entryY=0.75;entryDx=0;entryDy=0;exitX=0.5;exitY=0;exitDx=0;exitDy=0;" parent="1" source="N7ND0vrJDMsWQSG43f-Y-18" target="N7ND0vrJDMsWQSG43f-Y-14" edge="1">
          <mxGeometry relative="1" as="geometry">
            <mxPoint x="380" y="560" as="sourcePoint" />
            <mxPoint x="520" y="460" as="targetPoint" />
          </mxGeometry>
        </mxCell>
        <mxCell id="N7ND0vrJDMsWQSG43f-Y-18" value="Adult" style="shape=ext;margin=3;double=0;whiteSpace=wrap;html=1;align=center;strokeWidth=1;" parent="1" vertex="1">
          <mxGeometry x="510" y="550" width="100" height="40" as="geometry" />
        </mxCell>
        <mxCell id="N7ND0vrJDMsWQSG43f-Y-20" value="" style="endArrow=none;html=1;rounded=0;entryX=0;entryY=0.25;entryDx=0;entryDy=0;exitX=0.5;exitY=0;exitDx=0;exitDy=0;" parent="1" source="N7ND0vrJDMsWQSG43f-Y-32" target="N7ND0vrJDMsWQSG43f-Y-14" edge="1">
          <mxGeometry relative="1" as="geometry">
            <mxPoint x="250" y="510" as="sourcePoint" />
            <mxPoint x="520" y="460" as="targetPoint" />
          </mxGeometry>
        </mxCell>
        <mxCell id="N7ND0vrJDMsWQSG43f-Y-23" value="Toy" style="ellipse;shape=doubleEllipse;margin=3;whiteSpace=wrap;html=1;align=center;" parent="1" vertex="1">
          <mxGeometry x="120" y="490" width="100" height="40" as="geometry" />
        </mxCell>
        <mxCell id="N7ND0vrJDMsWQSG43f-Y-24" value="" style="endArrow=none;html=1;rounded=0;exitX=0.5;exitY=1;exitDx=0;exitDy=0;entryX=0.25;entryY=0;entryDx=0;entryDy=0;" parent="1" source="N7ND0vrJDMsWQSG43f-Y-23" target="N7ND0vrJDMsWQSG43f-Y-32" edge="1">
          <mxGeometry relative="1" as="geometry">
            <mxPoint x="360" y="460" as="sourcePoint" />
            <mxPoint x="230" y="530" as="targetPoint" />
          </mxGeometry>
        </mxCell>
        <mxCell id="N7ND0vrJDMsWQSG43f-Y-25" value="Nickname" style="ellipse;whiteSpace=wrap;html=1;align=center;" parent="1" vertex="1">
          <mxGeometry x="70" y="550" width="100" height="40" as="geometry" />
        </mxCell>
        <mxCell id="N7ND0vrJDMsWQSG43f-Y-26" value="" style="endArrow=none;html=1;rounded=0;exitX=1;exitY=0.5;exitDx=0;exitDy=0;entryX=0;entryY=0.5;entryDx=0;entryDy=0;" parent="1" source="N7ND0vrJDMsWQSG43f-Y-25" target="N7ND0vrJDMsWQSG43f-Y-32" edge="1">
          <mxGeometry relative="1" as="geometry">
            <mxPoint x="360" y="460" as="sourcePoint" />
            <mxPoint x="190" y="580" as="targetPoint" />
          </mxGeometry>
        </mxCell>
        <mxCell id="N7ND0vrJDMsWQSG43f-Y-27" value="Has" style="shape=rhombus;perimeter=rhombusPerimeter;whiteSpace=wrap;html=1;align=center;" parent="1" vertex="1">
          <mxGeometry x="360" y="540" width="120" height="60" as="geometry" />
        </mxCell>
        <mxCell id="N7ND0vrJDMsWQSG43f-Y-28" value="1..2" style="endArrow=none;html=1;rounded=0;entryX=0;entryY=0.5;entryDx=0;entryDy=0;exitX=1;exitY=0.5;exitDx=0;exitDy=0;" parent="1" source="N7ND0vrJDMsWQSG43f-Y-32" target="N7ND0vrJDMsWQSG43f-Y-27" edge="1">
          <mxGeometry x="-0.5" y="10" relative="1" as="geometry">
            <mxPoint x="320" y="580" as="sourcePoint" />
            <mxPoint x="520" y="460" as="targetPoint" />
            <mxPoint as="offset" />
          </mxGeometry>
        </mxCell>
        <mxCell id="N7ND0vrJDMsWQSG43f-Y-29" value="" style="endArrow=none;html=1;rounded=0;entryX=0;entryY=0.5;entryDx=0;entryDy=0;exitX=1;exitY=0.5;exitDx=0;exitDy=0;strokeWidth=1;" parent="1" source="N7ND0vrJDMsWQSG43f-Y-27" target="N7ND0vrJDMsWQSG43f-Y-18" edge="1">
          <mxGeometry relative="1" as="geometry">
            <mxPoint x="490" y="580" as="sourcePoint" />
            <mxPoint x="570" y="570" as="targetPoint" />
          </mxGeometry>
        </mxCell>
        <mxCell id="N7ND0vrJDMsWQSG43f-Y-32" value="Child" style="shape=ext;margin=3;double=0;whiteSpace=wrap;html=1;align=center;strokeWidth=1;" parent="1" vertex="1">
          <mxGeometry x="200" y="550" width="100" height="40" as="geometry" />
        </mxCell>
        <mxCell id="N7ND0vrJDMsWQSG43f-Y-33" value="Symptom" style="shape=ext;margin=3;double=0;whiteSpace=wrap;html=1;align=center;strokeWidth=2;" parent="1" vertex="1">
          <mxGeometry x="80" y="280" width="100" height="40" as="geometry" />
        </mxCell>
        <mxCell id="N7ND0vrJDMsWQSG43f-Y-36" value="Has" style="shape=rhombus;perimeter=rhombusPerimeter;whiteSpace=wrap;html=1;align=center;strokeWidth=2;" parent="1" vertex="1">
          <mxGeometry x="220" y="270" width="120" height="60" as="geometry" />
        </mxCell>
        <mxCell id="N7ND0vrJDMsWQSG43f-Y-40" value="" style="endArrow=none;html=1;rounded=0;strokeWidth=2;exitX=1;exitY=0.5;exitDx=0;exitDy=0;entryX=0;entryY=0.5;entryDx=0;entryDy=0;" parent="1" source="N7ND0vrJDMsWQSG43f-Y-33" target="N7ND0vrJDMsWQSG43f-Y-36" edge="1">
          <mxGeometry relative="1" as="geometry">
            <mxPoint x="320" y="350" as="sourcePoint" />
            <mxPoint x="480" y="350" as="targetPoint" />
          </mxGeometry>
        </mxCell>
        <mxCell id="N7ND0vrJDMsWQSG43f-Y-41" value="1..*" style="endArrow=none;html=1;rounded=0;strokeWidth=1;exitX=1;exitY=0.5;exitDx=0;exitDy=0;" parent="1" source="N7ND0vrJDMsWQSG43f-Y-36" target="N7ND0vrJDMsWQSG43f-Y-2" edge="1">
          <mxGeometry x="0.5" y="10" relative="1" as="geometry">
            <mxPoint x="320" y="350" as="sourcePoint" />
            <mxPoint x="480" y="350" as="targetPoint" />
            <mxPoint as="offset" />
          </mxGeometry>
        </mxCell>
        <mxCell id="N7ND0vrJDMsWQSG43f-Y-44" value="Cause" style="ellipse;whiteSpace=wrap;html=1;align=center;strokeWidth=2;perimeterSpacing=0;" parent="1" vertex="1">
          <mxGeometry x="140" y="220" width="100" height="40" as="geometry" />
        </mxCell>
        <mxCell id="N7ND0vrJDMsWQSG43f-Y-45" value="Attribute" style="ellipse;whiteSpace=wrap;html=1;align=center;strokeWidth=1;" parent="1" vertex="1">
          <mxGeometry x="10" y="220" width="100" height="40" as="geometry" />
        </mxCell>
        <mxCell id="N7ND0vrJDMsWQSG43f-Y-46" value="" style="endArrow=none;html=1;rounded=0;strokeWidth=1;exitX=0.5;exitY=1;exitDx=0;exitDy=0;entryX=0.25;entryY=0;entryDx=0;entryDy=0;" parent="1" source="N7ND0vrJDMsWQSG43f-Y-45" target="N7ND0vrJDMsWQSG43f-Y-33" edge="1">
          <mxGeometry relative="1" as="geometry">
            <mxPoint x="300" y="350" as="sourcePoint" />
            <mxPoint x="460" y="350" as="targetPoint" />
          </mxGeometry>
        </mxCell>
        <mxCell id="N7ND0vrJDMsWQSG43f-Y-47" value="" style="endArrow=none;html=1;rounded=0;strokeWidth=1;exitX=0.75;exitY=0;exitDx=0;exitDy=0;entryX=0.5;entryY=1;entryDx=0;entryDy=0;" parent="1" source="N7ND0vrJDMsWQSG43f-Y-33" target="N7ND0vrJDMsWQSG43f-Y-44" edge="1">
          <mxGeometry relative="1" as="geometry">
            <mxPoint x="300" y="350" as="sourcePoint" />
            <mxPoint x="200" y="240" as="targetPoint" />
          </mxGeometry>
        </mxCell>
        <mxCell id="N7ND0vrJDMsWQSG43f-Y-48" value="Presciption" style="whiteSpace=wrap;html=1;align=center;strokeWidth=1;" parent="1" vertex="1">
          <mxGeometry x="800" y="270" width="100" height="40" as="geometry" />
        </mxCell>
        <mxCell id="N7ND0vrJDMsWQSG43f-Y-49" value="ID" style="ellipse;whiteSpace=wrap;html=1;align=center;fontStyle=4;strokeWidth=1;" parent="1" vertex="1">
          <mxGeometry x="800" y="200" width="100" height="40" as="geometry" />
        </mxCell>
        <mxCell id="N7ND0vrJDMsWQSG43f-Y-50" value="Date" style="ellipse;whiteSpace=wrap;html=1;align=center;strokeWidth=1;" parent="1" vertex="1">
          <mxGeometry x="670" y="270" width="100" height="40" as="geometry" />
        </mxCell>
        <mxCell id="N7ND0vrJDMsWQSG43f-Y-51" value="Description" style="ellipse;whiteSpace=wrap;html=1;align=center;strokeWidth=1;" parent="1" vertex="1">
          <mxGeometry x="670" y="200" width="100" height="40" as="geometry" />
        </mxCell>
        <mxCell id="N7ND0vrJDMsWQSG43f-Y-52" value="" style="endArrow=none;html=1;rounded=0;strokeWidth=1;entryX=0.5;entryY=1;entryDx=0;entryDy=0;" parent="1" source="N7ND0vrJDMsWQSG43f-Y-48" target="N7ND0vrJDMsWQSG43f-Y-49" edge="1">
          <mxGeometry relative="1" as="geometry">
            <mxPoint x="450" y="340" as="sourcePoint" />
            <mxPoint x="610" y="340" as="targetPoint" />
          </mxGeometry>
        </mxCell>
        <mxCell id="N7ND0vrJDMsWQSG43f-Y-53" value="" style="endArrow=none;html=1;rounded=0;strokeWidth=1;entryX=0.5;entryY=1;entryDx=0;entryDy=0;exitX=0;exitY=0;exitDx=0;exitDy=0;" parent="1" source="N7ND0vrJDMsWQSG43f-Y-48" target="N7ND0vrJDMsWQSG43f-Y-51" edge="1">
          <mxGeometry relative="1" as="geometry">
            <mxPoint x="450" y="340" as="sourcePoint" />
            <mxPoint x="610" y="340" as="targetPoint" />
          </mxGeometry>
        </mxCell>
        <mxCell id="N7ND0vrJDMsWQSG43f-Y-54" value="" style="endArrow=none;html=1;rounded=0;strokeWidth=1;exitX=0;exitY=0.5;exitDx=0;exitDy=0;entryX=1;entryY=0.5;entryDx=0;entryDy=0;" parent="1" source="N7ND0vrJDMsWQSG43f-Y-48" target="N7ND0vrJDMsWQSG43f-Y-50" edge="1">
          <mxGeometry relative="1" as="geometry">
            <mxPoint x="790" y="340" as="sourcePoint" />
            <mxPoint x="790" y="290" as="targetPoint" />
          </mxGeometry>
        </mxCell>
        <mxCell id="apHZoh85ZaACeip3ARpe-1" value="Doctor" style="whiteSpace=wrap;html=1;align=center;strokeWidth=1;" vertex="1" parent="1">
          <mxGeometry x="1180" y="280" width="100" height="40" as="geometry" />
        </mxCell>
        <mxCell id="apHZoh85ZaACeip3ARpe-2" value="Location" style="ellipse;whiteSpace=wrap;html=1;align=center;strokeWidth=1;" vertex="1" parent="1">
          <mxGeometry x="1180" y="210" width="100" height="40" as="geometry" />
        </mxCell>
        <mxCell id="apHZoh85ZaACeip3ARpe-3" value="SSN" style="ellipse;whiteSpace=wrap;html=1;align=center;fontStyle=4;strokeWidth=1;" vertex="1" parent="1">
          <mxGeometry x="1050" y="210" width="100" height="40" as="geometry" />
        </mxCell>
        <mxCell id="apHZoh85ZaACeip3ARpe-4" value="ID" style="ellipse;whiteSpace=wrap;html=1;align=center;fontStyle=4;strokeWidth=1;" vertex="1" parent="1">
          <mxGeometry x="1310" y="210" width="100" height="40" as="geometry" />
        </mxCell>
        <mxCell id="apHZoh85ZaACeip3ARpe-5" value="Canton" style="ellipse;whiteSpace=wrap;html=1;align=center;strokeWidth=1;" vertex="1" parent="1">
          <mxGeometry x="1120" y="140" width="100" height="40" as="geometry" />
        </mxCell>
        <mxCell id="apHZoh85ZaACeip3ARpe-6" value="City" style="ellipse;whiteSpace=wrap;html=1;align=center;strokeWidth=1;" vertex="1" parent="1">
          <mxGeometry x="1240" y="140" width="100" height="40" as="geometry" />
        </mxCell>
        <mxCell id="apHZoh85ZaACeip3ARpe-7" value="" style="endArrow=none;html=1;rounded=0;strokeWidth=1;entryX=0.5;entryY=1;entryDx=0;entryDy=0;exitX=0.5;exitY=0;exitDx=0;exitDy=0;" edge="1" parent="1" source="apHZoh85ZaACeip3ARpe-2" target="apHZoh85ZaACeip3ARpe-5">
          <mxGeometry relative="1" as="geometry">
            <mxPoint x="1050" y="170" as="sourcePoint" />
            <mxPoint x="1210" y="170" as="targetPoint" />
          </mxGeometry>
        </mxCell>
        <mxCell id="apHZoh85ZaACeip3ARpe-10" value="" style="endArrow=none;html=1;rounded=0;strokeWidth=1;entryX=0.5;entryY=1;entryDx=0;entryDy=0;exitX=0.5;exitY=0;exitDx=0;exitDy=0;" edge="1" parent="1" source="apHZoh85ZaACeip3ARpe-2" target="apHZoh85ZaACeip3ARpe-6">
          <mxGeometry relative="1" as="geometry">
            <mxPoint x="1050" y="170" as="sourcePoint" />
            <mxPoint x="1210" y="170" as="targetPoint" />
          </mxGeometry>
        </mxCell>
        <mxCell id="apHZoh85ZaACeip3ARpe-11" value="" style="endArrow=none;html=1;rounded=0;strokeWidth=1;entryX=0.5;entryY=1;entryDx=0;entryDy=0;exitX=0.5;exitY=0;exitDx=0;exitDy=0;" edge="1" parent="1" source="apHZoh85ZaACeip3ARpe-1" target="apHZoh85ZaACeip3ARpe-2">
          <mxGeometry relative="1" as="geometry">
            <mxPoint x="1050" y="170" as="sourcePoint" />
            <mxPoint x="1210" y="170" as="targetPoint" />
          </mxGeometry>
        </mxCell>
        <mxCell id="apHZoh85ZaACeip3ARpe-12" value="" style="endArrow=none;html=1;rounded=0;strokeWidth=1;entryX=0.5;entryY=1;entryDx=0;entryDy=0;exitX=0.25;exitY=0;exitDx=0;exitDy=0;" edge="1" parent="1" source="apHZoh85ZaACeip3ARpe-1" target="apHZoh85ZaACeip3ARpe-3">
          <mxGeometry relative="1" as="geometry">
            <mxPoint x="1050" y="170" as="sourcePoint" />
            <mxPoint x="1210" y="170" as="targetPoint" />
          </mxGeometry>
        </mxCell>
        <mxCell id="apHZoh85ZaACeip3ARpe-13" value="" style="endArrow=none;html=1;rounded=0;strokeWidth=1;entryX=0.5;entryY=1;entryDx=0;entryDy=0;exitX=0.75;exitY=0;exitDx=0;exitDy=0;" edge="1" parent="1" source="apHZoh85ZaACeip3ARpe-1" target="apHZoh85ZaACeip3ARpe-4">
          <mxGeometry relative="1" as="geometry">
            <mxPoint x="1050" y="170" as="sourcePoint" />
            <mxPoint x="1210" y="170" as="targetPoint" />
          </mxGeometry>
        </mxCell>
        <mxCell id="apHZoh85ZaACeip3ARpe-14" value="D, T" style="triangle;whiteSpace=wrap;rotation=0;horizontal=1;direction=north;flipV=0;flipH=0;verticalAlign=middle;html=1;labelPosition=center;verticalLabelPosition=middle;align=center;strokeWidth=1;" vertex="1" parent="1">
          <mxGeometry x="1190" y="370" width="80" height="60" as="geometry" />
        </mxCell>
        <mxCell id="apHZoh85ZaACeip3ARpe-18" value="Resident" style="whiteSpace=wrap;html=1;align=center;strokeWidth=1;" vertex="1" parent="1">
          <mxGeometry x="1430" y="480" width="100" height="40" as="geometry" />
        </mxCell>
        <mxCell id="apHZoh85ZaACeip3ARpe-19" value="Staff" style="whiteSpace=wrap;html=1;align=center;strokeWidth=1;" vertex="1" parent="1">
          <mxGeometry x="1180" y="480" width="100" height="40" as="geometry" />
        </mxCell>
        <mxCell id="apHZoh85ZaACeip3ARpe-20" value="Manager" style="whiteSpace=wrap;html=1;align=center;strokeWidth=1;" vertex="1" parent="1">
          <mxGeometry x="950" y="480" width="100" height="40" as="geometry" />
        </mxCell>
        <mxCell id="apHZoh85ZaACeip3ARpe-21" value="" style="endArrow=none;html=1;rounded=0;strokeWidth=1;entryX=0.5;entryY=1;entryDx=0;entryDy=0;exitX=1;exitY=0.5;exitDx=0;exitDy=0;" edge="1" parent="1" source="apHZoh85ZaACeip3ARpe-14" target="apHZoh85ZaACeip3ARpe-1">
          <mxGeometry relative="1" as="geometry">
            <mxPoint x="1050" y="370" as="sourcePoint" />
            <mxPoint x="1210" y="370" as="targetPoint" />
          </mxGeometry>
        </mxCell>
        <mxCell id="apHZoh85ZaACeip3ARpe-22" value="" style="endArrow=none;html=1;rounded=0;strokeWidth=1;entryX=0;entryY=0.5;entryDx=0;entryDy=0;exitX=0.5;exitY=0;exitDx=0;exitDy=0;" edge="1" parent="1" source="apHZoh85ZaACeip3ARpe-19" target="apHZoh85ZaACeip3ARpe-14">
          <mxGeometry relative="1" as="geometry">
            <mxPoint x="1050" y="370" as="sourcePoint" />
            <mxPoint x="1210" y="370" as="targetPoint" />
          </mxGeometry>
        </mxCell>
        <mxCell id="apHZoh85ZaACeip3ARpe-23" value="" style="endArrow=none;html=1;rounded=0;strokeWidth=1;entryX=0;entryY=0.75;entryDx=0;entryDy=0;exitX=0.5;exitY=0;exitDx=0;exitDy=0;" edge="1" parent="1" source="apHZoh85ZaACeip3ARpe-18" target="apHZoh85ZaACeip3ARpe-14">
          <mxGeometry relative="1" as="geometry">
            <mxPoint x="1050" y="370" as="sourcePoint" />
            <mxPoint x="1210" y="370" as="targetPoint" />
          </mxGeometry>
        </mxCell>
        <mxCell id="apHZoh85ZaACeip3ARpe-24" value="" style="endArrow=none;html=1;rounded=0;strokeWidth=1;entryX=0;entryY=0.25;entryDx=0;entryDy=0;exitX=0.5;exitY=0;exitDx=0;exitDy=0;" edge="1" parent="1" source="apHZoh85ZaACeip3ARpe-20" target="apHZoh85ZaACeip3ARpe-14">
          <mxGeometry relative="1" as="geometry">
            <mxPoint x="1050" y="370" as="sourcePoint" />
            <mxPoint x="1210" y="370" as="targetPoint" />
          </mxGeometry>
        </mxCell>
        <mxCell id="apHZoh85ZaACeip3ARpe-25" value="Monitors" style="shape=rhombus;perimeter=rhombusPerimeter;whiteSpace=wrap;html=1;align=center;strokeWidth=1;" vertex="1" parent="1">
          <mxGeometry x="940" y="330" width="120" height="60" as="geometry" />
        </mxCell>
        <mxCell id="apHZoh85ZaACeip3ARpe-27" value="0..1" style="endArrow=none;html=1;rounded=0;strokeWidth=1;exitX=1;exitY=0.5;exitDx=0;exitDy=0;" edge="1" parent="1" source="apHZoh85ZaACeip3ARpe-25">
          <mxGeometry x="0.8571" y="20" relative="1" as="geometry">
            <mxPoint x="1060" y="340" as="sourcePoint" />
            <mxPoint x="1200" y="360" as="targetPoint" />
            <mxPoint as="offset" />
          </mxGeometry>
        </mxCell>
        <mxCell id="apHZoh85ZaACeip3ARpe-29" value="" style="endArrow=none;html=1;rounded=0;strokeWidth=1;entryX=0.5;entryY=1;entryDx=0;entryDy=0;exitX=0.5;exitY=0;exitDx=0;exitDy=0;" edge="1" parent="1" source="apHZoh85ZaACeip3ARpe-20" target="apHZoh85ZaACeip3ARpe-25">
          <mxGeometry relative="1" as="geometry">
            <mxPoint x="940" y="370" as="sourcePoint" />
            <mxPoint x="1100" y="370" as="targetPoint" />
          </mxGeometry>
        </mxCell>
        <mxCell id="apHZoh85ZaACeip3ARpe-30" value="Works with" style="shape=rhombus;perimeter=rhombusPerimeter;whiteSpace=wrap;html=1;align=center;strokeWidth=1;" vertex="1" parent="1">
          <mxGeometry x="1410" y="270" width="120" height="60" as="geometry" />
        </mxCell>
        <mxCell id="apHZoh85ZaACeip3ARpe-34" value="" style="endArrow=none;html=1;rounded=0;strokeWidth=1;entryX=1;entryY=0.25;entryDx=0;entryDy=0;" edge="1" parent="1" target="apHZoh85ZaACeip3ARpe-1">
          <mxGeometry relative="1" as="geometry">
            <mxPoint x="1380" y="290" as="sourcePoint" />
            <mxPoint x="1100" y="370" as="targetPoint" />
          </mxGeometry>
        </mxCell>
        <mxCell id="apHZoh85ZaACeip3ARpe-35" value="" style="endArrow=none;html=1;rounded=0;strokeWidth=1;" edge="1" parent="1">
          <mxGeometry relative="1" as="geometry">
            <mxPoint x="1380" y="260" as="sourcePoint" />
            <mxPoint x="1380" y="290" as="targetPoint" />
          </mxGeometry>
        </mxCell>
        <mxCell id="apHZoh85ZaACeip3ARpe-36" value="" style="endArrow=none;html=1;rounded=0;strokeWidth=1;" edge="1" parent="1">
          <mxGeometry relative="1" as="geometry">
            <mxPoint x="1470" y="260" as="sourcePoint" />
            <mxPoint x="1380" y="260" as="targetPoint" />
          </mxGeometry>
        </mxCell>
        <mxCell id="apHZoh85ZaACeip3ARpe-38" value="" style="endArrow=none;html=1;rounded=0;strokeWidth=1;entryX=0.5;entryY=0;entryDx=0;entryDy=0;" edge="1" parent="1" target="apHZoh85ZaACeip3ARpe-30">
          <mxGeometry relative="1" as="geometry">
            <mxPoint x="1470" y="260" as="sourcePoint" />
            <mxPoint x="1100" y="370" as="targetPoint" />
          </mxGeometry>
        </mxCell>
        <mxCell id="apHZoh85ZaACeip3ARpe-47" value="0..1" style="endArrow=none;html=1;rounded=0;strokeWidth=1;entryX=1;entryY=0.25;entryDx=0;entryDy=0;" edge="1" parent="1">
          <mxGeometry x="0.6" y="10" relative="1" as="geometry">
            <mxPoint x="1380" y="310" as="sourcePoint" />
            <mxPoint x="1280" y="310" as="targetPoint" />
            <mxPoint as="offset" />
          </mxGeometry>
        </mxCell>
        <mxCell id="apHZoh85ZaACeip3ARpe-48" value="" style="endArrow=none;html=1;rounded=0;strokeWidth=1;" edge="1" parent="1">
          <mxGeometry relative="1" as="geometry">
            <mxPoint x="1380" y="310" as="sourcePoint" />
            <mxPoint x="1380" y="340" as="targetPoint" />
          </mxGeometry>
        </mxCell>
        <mxCell id="apHZoh85ZaACeip3ARpe-50" value="" style="endArrow=none;html=1;rounded=0;strokeWidth=1;" edge="1" parent="1">
          <mxGeometry relative="1" as="geometry">
            <mxPoint x="1470" y="340" as="sourcePoint" />
            <mxPoint x="1380" y="340" as="targetPoint" />
          </mxGeometry>
        </mxCell>
        <mxCell id="apHZoh85ZaACeip3ARpe-52" value="" style="endArrow=none;html=1;rounded=0;strokeWidth=1;exitX=0.5;exitY=1;exitDx=0;exitDy=0;" edge="1" parent="1" source="apHZoh85ZaACeip3ARpe-30">
          <mxGeometry relative="1" as="geometry">
            <mxPoint x="1490" y="280" as="sourcePoint" />
            <mxPoint x="1470" y="340" as="targetPoint" />
          </mxGeometry>
        </mxCell>
        <mxCell id="apHZoh85ZaACeip3ARpe-53" value="" style="endArrow=none;html=1;rounded=0;strokeWidth=1;exitX=0.199;exitY=1.021;exitDx=0;exitDy=0;exitPerimeter=0;" edge="1" parent="1" source="apHZoh85ZaACeip3ARpe-1">
          <mxGeometry relative="1" as="geometry">
            <mxPoint x="940" y="370" as="sourcePoint" />
            <mxPoint x="1200" y="360" as="targetPoint" />
          </mxGeometry>
        </mxCell>
        <mxCell id="apHZoh85ZaACeip3ARpe-54" value="Issues" style="shape=rhombus;perimeter=rhombusPerimeter;whiteSpace=wrap;html=1;align=center;strokeWidth=1;" vertex="1" parent="1">
          <mxGeometry x="940" y="260" width="120" height="60" as="geometry" />
        </mxCell>
        <mxCell id="apHZoh85ZaACeip3ARpe-55" value="" style="endArrow=none;html=1;rounded=0;strokeWidth=1;entryX=0;entryY=0.25;entryDx=0;entryDy=0;" edge="1" parent="1" source="apHZoh85ZaACeip3ARpe-54" target="apHZoh85ZaACeip3ARpe-1">
          <mxGeometry relative="1" as="geometry">
            <mxPoint x="940" y="370" as="sourcePoint" />
            <mxPoint x="1100" y="370" as="targetPoint" />
          </mxGeometry>
        </mxCell>
        <mxCell id="apHZoh85ZaACeip3ARpe-56" value="1" style="endArrow=none;html=1;rounded=0;strokeWidth=1;entryX=0;entryY=0.5;entryDx=0;entryDy=0;exitX=1;exitY=0.5;exitDx=0;exitDy=0;" edge="1" parent="1" source="N7ND0vrJDMsWQSG43f-Y-48" target="apHZoh85ZaACeip3ARpe-54">
          <mxGeometry x="-0.5" y="10" relative="1" as="geometry">
            <mxPoint x="940" y="370" as="sourcePoint" />
            <mxPoint x="1100" y="370" as="targetPoint" />
            <mxPoint as="offset" />
          </mxGeometry>
        </mxCell>
      </root>
    </mxGraphModel>
  </diagram>
</mxfile>
